<?xml version="1.0" encoding="UTF-8" standalone="no"?>
<svg
   xmlns:dc="http://purl.org/dc/elements/1.1/"
   xmlns:cc="http://creativecommons.org/ns#"
   xmlns:rdf="http://www.w3.org/1999/02/22-rdf-syntax-ns#"
   xmlns:svg="http://www.w3.org/2000/svg"
   xmlns="http://www.w3.org/2000/svg"
   xmlns:sodipodi="http://sodipodi.sourceforge.net/DTD/sodipodi-0.dtd"
   xmlns:inkscape="http://www.inkscape.org/namespaces/inkscape"
   version="1.1"
   x="0px"
   y="0px"
   viewBox="0 0 21.262764 18.911577"
   style="fill:#ffffff"
   xml:space="preserve"
   id="svg6"
   sodipodi:docname="caution_orange.svg"
   inkscape:version="0.92.1 r15371"
   width="21.262764"
   height="18.911577"><metadata
     id="metadata12"><rdf:RDF><cc:Work
         rdf:about=""><dc:format>image/svg+xml</dc:format><dc:type
           rdf:resource="http://purl.org/dc/dcmitype/StillImage" /><dc:title></dc:title></cc:Work></rdf:RDF></metadata><defs
     id="defs10" /><sodipodi:namedview
     pagecolor="#ffffff"
     bordercolor="#666666"
     borderopacity="1"
     objecttolerance="10"
     gridtolerance="10"
     guidetolerance="10"
     inkscape:pageopacity="0"
     inkscape:pageshadow="2"
     inkscape:window-width="1856"
     inkscape:window-height="1057"
     id="namedview8"
     showgrid="false"
     inkscape:zoom="17.689165"
     inkscape:cx="-24.604309"
     inkscape:cy="9.4557871"
     inkscape:window-x="56"
     inkscape:window-y="-8"
     inkscape:window-maximized="1"
     inkscape:current-layer="svg6"
     fit-margin-top="0"
     fit-margin-left="0"
     fit-margin-right="0"
     fit-margin-bottom="0" /><g
     id="g4489"
     transform="scale(1.575)"><rect
       y="1.4246011"
       x="5.4781199"
       height="9.1581478"
       width="2.5439277"
       id="rect4486"
       style="fill:#ff883e;fill-opacity:1;stroke:none;stroke-width:2.71052289;stroke-miterlimit:4;stroke-dasharray:none;stroke-opacity:1" /><path
       d="M 13.258608,10.2276 7.7776077,0.73439998 c -0.5643,-0.9792 -1.48995,-0.9792 -2.05515,0 L 0.24145736,10.2276 c -0.56565,0.9792 -0.10305,1.77975 1.02825004,1.77975 H 12.231258 c 1.13085,0 1.593,-0.801 1.02735,-1.77975 z m -5.9706003,0.0369 c -0.1512,0.1485 -0.3258,0.2232 -0.5337,0.2232 -0.2115,0 -0.39285,-0.0747 -0.54045,-0.2232 -0.14715,-0.1494 -0.22455,-0.3294 -0.22455,-0.54045 0,-0.20655 0.0774,-0.3843 0.22455,-0.5337 0.1476,-0.1494 0.32895,-0.225 0.54045,-0.225 0.2079,0 0.3825,0.0756 0.5337,0.225 0.14715,0.1494 0.2214,0.32715 0.2214,0.5337 0,0.2106 -0.07425,0.39105 -0.2214,0.54045 z m -0.36585,-1.86075 h -0.3429 c -0.45945,-2.75535 -0.68805,-4.2444 -0.68805,-4.4622 0,-0.2655 0.08775,-0.4797 0.26595,-0.6426 0.17415,-0.16425 0.37575,-0.24435 0.59715,-0.24435 0.2376,0 0.4392,0.0846 0.60705,0.2601 0.1647,0.17325 0.24885,0.3798 0.24885,0.61695 -4.5e-4,0.2241 -0.22815,1.71675 -0.68805,4.4721 z"
       id="path2"
       style="fill:#ff883e;fill-opacity:1;stroke-width:0.44999999"
       inkscape:connector-curvature="0" /><g
       transform="matrix(0.9025,0,0,0.9025,13.753269,2.481879)"
       id="text4485"
       style="font-style:normal;font-variant:normal;font-weight:normal;font-stretch:normal;font-size:16px;line-height:25px;font-family:'Courier Condensed';-inkscape-font-specification:'Courier Condensed, ';letter-spacing:0px;word-spacing:0px;fill:#000000;fill-opacity:1;stroke:none"
       aria-label="!"><path
         inkscape:connector-curvature="0"
         id="path4487"
         style="font-style:normal;font-variant:normal;font-weight:bold;font-stretch:normal;font-size:11.33333302px;font-family:Georgia;-inkscape-font-specification:'Georgia Bold'"
         d="m -6.6834273,2.2025705 q 0,0.226888 -0.083008,0.6031901 -0.077474,0.3707682 -0.1992187,0.8743489 -0.116211,0.4759114 -0.265625,1.1897786 -0.1494141,0.7083333 -0.3154297,1.7542317 H -7.9728152 Q -8.1388309,5.5671537 -8.2882449,4.8643543 -8.437659,4.1615548 -8.5538699,3.6856434 -8.6590131,3.2484689 -8.7475548,2.8334298 q -0.088542,-0.4205729 -0.088542,-0.6308593 0,-0.4261068 0.3154297,-0.7249349 0.3154297,-0.304362 0.758138,-0.304362 0.4371745,0 0.758138,0.304362 0.3209635,0.2988281 0.3209638,0.7249349 z m -0.011068,6.1149087 q 0,0.4205729 -0.3209635,0.7249348 -0.3154297,0.2988281 -0.7415364,0.2988281 -0.4316407,0 -0.7526042,-0.2988281 -0.3154297,-0.3043619 -0.3154297,-0.7249348 0,-0.4205729 0.3154297,-0.7249349 0.3209635,-0.3098958 0.7526042,-0.3098958 0.4261067,0 0.7415364,0.3098958 0.3209635,0.304362 0.3209635,0.7249349 z" /></g></g></svg>