<?xml version="1.0" encoding="UTF-8" standalone="no"?>
<svg
   xmlns:dc="http://purl.org/dc/elements/1.1/"
   xmlns:cc="http://creativecommons.org/ns#"
   xmlns:rdf="http://www.w3.org/1999/02/22-rdf-syntax-ns#"
   xmlns:svg="http://www.w3.org/2000/svg"
   xmlns="http://www.w3.org/2000/svg"
   xmlns:sodipodi="http://sodipodi.sourceforge.net/DTD/sodipodi-0.dtd"
   xmlns:inkscape="http://www.inkscape.org/namespaces/inkscape"
   version="1.1"
   x="0px"
   y="0px"
   viewBox="0 0 21.470667 19.096489"
   style="fill:#ffffff"
   xml:space="preserve"
   id="svg6"
   sodipodi:docname="caution_red.svg"
   inkscape:version="0.92.1 r15371"
   width="21.470667"
   height="19.096489"><metadata
     id="metadata12"><rdf:RDF><cc:Work
         rdf:about=""><dc:format>image/svg+xml</dc:format><dc:type
           rdf:resource="http://purl.org/dc/dcmitype/StillImage" /><dc:title></dc:title></cc:Work></rdf:RDF></metadata><defs
     id="defs10" /><sodipodi:namedview
     pagecolor="#ffffff"
     bordercolor="#666666"
     borderopacity="1"
     objecttolerance="10"
     gridtolerance="10"
     guidetolerance="10"
     inkscape:pageopacity="0"
     inkscape:pageshadow="2"
     inkscape:window-width="1856"
     inkscape:window-height="1057"
     id="namedview8"
     showgrid="false"
     inkscape:zoom="17.689165"
     inkscape:cx="-24.387294"
     inkscape:cy="9.5482437"
     inkscape:window-x="56"
     inkscape:window-y="-8"
     inkscape:window-maximized="1"
     inkscape:current-layer="svg6"
     fit-margin-top="0"
     fit-margin-left="0"
     fit-margin-right="0"
     fit-margin-bottom="0" /><g
     id="g5058"
     transform="scale(1.5904)"><rect
       y="1.4246011"
       x="5.4781199"
       height="9.1581478"
       width="2.5439277"
       id="rect4486"
       style="fill:#ffffff;fill-opacity:1;stroke:none;stroke-width:2.71052289;stroke-miterlimit:4;stroke-dasharray:none;stroke-opacity:1" /><path
       d="M 13.258608,10.2276 7.7776077,0.73439997 c -0.5643,-0.9792 -1.48995,-0.9792 -2.05515,0 L 0.24145741,10.2276 c -0.56565,0.9792 -0.10305,1.77975 1.02824999,1.77975 H 12.231258 c 1.13085,0 1.593,-0.801 1.02735,-1.77975 z m -5.9706003,0.0369 c -0.1512,0.1485 -0.3258,0.2232 -0.5337,0.2232 -0.2115,0 -0.39285,-0.0747 -0.54045,-0.2232 -0.14715,-0.1494 -0.22455,-0.3294 -0.22455,-0.54045 0,-0.20655 0.0774,-0.3843 0.22455,-0.5337 0.1476,-0.1494 0.32895,-0.225 0.54045,-0.225 0.2079,0 0.3825,0.0756 0.5337,0.225 0.14715,0.1494 0.2214,0.32715 0.2214,0.5337 0,0.2106 -0.07425,0.39105 -0.2214,0.54045 z m -0.36585,-1.86075 h -0.3429 c -0.45945,-2.75535 -0.68805,-4.2444 -0.68805,-4.4622 0,-0.2655 0.08775,-0.4797 0.26595,-0.6426 0.17415,-0.16425 0.37575,-0.24435 0.59715,-0.24435 0.2376,0 0.4392,0.0846 0.60705,0.2601 0.1647,0.17325 0.24885,0.3798 0.24885,0.61695 -4.5e-4,0.2241 -0.22815,1.71675 -0.68805,4.4721 z"
       id="path2"
       style="fill:#d2515e;fill-opacity:1;stroke-width:0.44999999"
       inkscape:connector-curvature="0" /></g></svg>