<?xml version="1.0" encoding="UTF-8" standalone="no"?>
<!-- Generator: Adobe Illustrator 16.0.4, SVG Export Plug-In . SVG Version: 6.00 Build 0)  -->

<svg
   xmlns:dc="http://purl.org/dc/elements/1.1/"
   xmlns:cc="http://creativecommons.org/ns#"
   xmlns:rdf="http://www.w3.org/1999/02/22-rdf-syntax-ns#"
   xmlns:svg="http://www.w3.org/2000/svg"
   xmlns="http://www.w3.org/2000/svg"
   xmlns:sodipodi="http://sodipodi.sourceforge.net/DTD/sodipodi-0.dtd"
   xmlns:inkscape="http://www.inkscape.org/namespaces/inkscape"
   version="1.1"
   x="0px"
   y="0px"
   width="156.054"
   height="83.752998"
   viewBox="0 0 156.054 83.752998"
   enable-background="new 0 0 288 288"
   xml:space="preserve"
   id="svg3726"
   sodipodi:docname="cmc.svg"
   inkscape:version="0.92.0 r15299"><metadata
     id="metadata3732"><rdf:RDF><cc:Work
         rdf:about=""><dc:format>image/svg+xml</dc:format><dc:type
           rdf:resource="http://purl.org/dc/dcmitype/StillImage" /><dc:title></dc:title></cc:Work></rdf:RDF></metadata><defs
     id="defs3730" /><sodipodi:namedview
     pagecolor="#ffffff"
     bordercolor="#666666"
     borderopacity="1"
     objecttolerance="10"
     gridtolerance="10"
     guidetolerance="10"
     inkscape:pageopacity="0"
     inkscape:pageshadow="2"
     inkscape:window-width="826"
     inkscape:window-height="668"
     id="namedview3728"
     showgrid="false"
     fit-margin-top="0"
     fit-margin-left="0"
     fit-margin-right="0"
     fit-margin-bottom="0"
     inkscape:zoom="0.81944444"
     inkscape:cx="79.893"
     inkscape:cy="41.381"
     inkscape:window-x="534"
     inkscape:window-y="261"
     inkscape:window-maximized="0"
     inkscape:current-layer="svg3726" /><g
     id="Layer_1"
     transform="translate(-64.107,-101.628)" /><g
     id="outlines"
     transform="translate(-64.107,-101.628)"><path
       d="m 92.107,180.49 c 13.979,3.064 33.312,4.891 50.031,4.891 0.77,-0.002 78.023,-0.668 78.023,-22.631 v -9.242 h -10.467 v 9.008 c -2.191,3.789 -27.891,12.373 -67.564,12.396 -0.062,0 -0.125,0 -0.188,0 -39.67,0 -65.252,-8.582 -67.369,-12.377 v -38.061 c 2.117,-3.797 27.695,-12.379 67.369,-12.379 0.059,0 0.127,0 0.188,0 39.674,0.027 65.373,8.609 67.564,12.4 v 9.006 h 10.467 v -9.242 c 0,-21.965 -77.254,-22.631 -78.023,-22.631 -0.053,0 -0.104,0 -0.156,0 -16.719,0 -36.053,1.826 -50.031,4.891 -18.996,4.164 -27.844,9.801 -27.844,17.74 v 38.49 c 0,7.938 8.848,13.576 27.844,17.74 h 0.156 z"
       id="path3713"
       inkscape:connector-curvature="0" /><g
       id="g3719"><g
         id="g3717"><path
           d="m 139.674,163.291 h -10.391 l 0.592,-31.312 -10.852,10.109 h -5.215 l -10.801,-9.891 0.318,11.361 0.234,19.732 h -10.44 v -41.984 h 14.152 l 9.092,8.436 9.008,-8.436 h 14.303 z"
           id="path3715"
           inkscape:connector-curvature="0" /></g></g><g
       id="g3723"><path
         d="m 164.939,163.713 h -0.008 c -5.852,0 -9.867,-1.178 -12.287,-3.605 -2.027,-2.039 -3.184,-5.324 -3.43,-9.756 -0.105,-1.826 -0.156,-4.428 -0.156,-7.734 0,-6.373 0.309,-10.529 0.934,-12.711 0.467,-1.631 1.221,-3.115 2.242,-4.402 1.023,-1.283 2.43,-2.283 4.188,-2.977 2.631,-1.035 6.111,-1.539 10.648,-1.539 h 12.633 c 4.512,0 7.688,0.271 9.715,0.828 3.125,0.859 5.234,2.793 6.268,5.748 0.709,2.021 1.049,4.742 1.049,8.316 v 1.43 h -10.271 v -3.875 c 0,-1.158 -0.238,-1.971 -0.705,-2.416 -0.078,-0.074 -0.926,-0.752 -5.531,-0.752 h -13.729 c -4.092,0 -5.469,0.746 -5.92,1.191 -0.453,0.441 -1.207,1.742 -1.207,5.518 v 10.227 c 0,4.582 0.932,5.742 1.334,6.033 0.682,0.492 1.363,0.777 2.096,0.881 0.973,0.143 2.357,0.215 4.117,0.215 h 12.635 c 2.176,0 3.643,-0.033 4.354,-0.096 0.914,-0.184 1.711,-0.525 2.16,-0.963 0.217,-0.209 0.496,-0.674 0.625,-1.713 0.082,-0.656 0.145,-1.893 0.189,-3.721 l 0.039,-1.391 h 10.234 v 4.83 c 0,4.352 -1.137,7.523 -3.379,9.432 -1.799,1.529 -4.598,2.408 -8.547,2.682 -1.475,0.1 -19.512,0.312 -20.279,0.32 z"
         id="path3721"
         inkscape:connector-curvature="0" /></g></g></svg>