<?xml version="1.0" encoding="UTF-8" standalone="no"?>
<!-- Generator: Adobe Illustrator 16.0.4, SVG Export Plug-In . SVG Version: 6.00 Build 0)  -->

<svg
   xmlns:dc="http://purl.org/dc/elements/1.1/"
   xmlns:cc="http://creativecommons.org/ns#"
   xmlns:rdf="http://www.w3.org/1999/02/22-rdf-syntax-ns#"
   xmlns:svg="http://www.w3.org/2000/svg"
   xmlns="http://www.w3.org/2000/svg"
   xmlns:sodipodi="http://sodipodi.sourceforge.net/DTD/sodipodi-0.dtd"
   xmlns:inkscape="http://www.inkscape.org/namespaces/inkscape"
   version="1.1"
   id="outlines"
   x="0px"
   y="0px"
   width="154.002"
   height="91.113998"
   viewBox="0 0 154.002 91.113998"
   enable-background="new 0 0 288 288"
   xml:space="preserve"
   sodipodi:docname="cpa.svg"
   inkscape:version="0.92.0 r15299"><metadata
     id="metadata3745"><rdf:RDF><cc:Work
         rdf:about=""><dc:format>image/svg+xml</dc:format><dc:type
           rdf:resource="http://purl.org/dc/dcmitype/StillImage" /><dc:title></dc:title></cc:Work></rdf:RDF></metadata><defs
     id="defs3743" /><sodipodi:namedview
     pagecolor="#ffffff"
     bordercolor="#666666"
     borderopacity="1"
     objecttolerance="10"
     gridtolerance="10"
     guidetolerance="10"
     inkscape:pageopacity="0"
     inkscape:pageshadow="2"
     inkscape:window-width="640"
     inkscape:window-height="480"
     id="namedview3741"
     showgrid="false"
     fit-margin-top="0"
     fit-margin-left="0"
     fit-margin-right="0"
     fit-margin-bottom="0"
     inkscape:zoom="0.81944444"
     inkscape:cx="81.056"
     inkscape:cy="41.559"
     inkscape:window-x="308"
     inkscape:window-y="58"
     inkscape:window-maximized="0"
     inkscape:current-layer="outlines" /><path
     d="m 154.002,57.6 v 10.885 c 0,21.965 -76.227,22.629 -76.996,22.629 -0.053,0 -0.105,0 -0.158,0 -16.719,0 -35.025,-1.826 -49.004,-4.887 C 8.848,82.059 0,76.424 0,68.485 V 22.631 C 0,14.692 8.848,9.055 27.844,4.891 41.823,1.827 60.129,0 76.848,0 c 0.053,0 0.105,0 0.158,0 0.77,0 76.996,0.666 76.996,22.631 V 33.516 H 143.535 V 22.868 c -2.189,-3.793 -26.865,-12.373 -66.537,-12.4 -0.061,0 -0.129,0 -0.189,0 -39.672,0 -64.225,8.582 -66.34,12.379 v 45.424 c 2.115,3.797 26.672,12.377 66.34,12.377 0.062,0 0.127,0 0.189,0 39.672,-0.025 64.348,-8.607 66.537,-12.398 V 57.602 h 10.467 z"
     id="path3734"
     inkscape:connector-curvature="0" /><path
     d="M 32.084,70.178 V 21.045 H 55.67 c 6.033,0 9.967,0.244 11.799,0.736 2.814,0.738 5.172,2.342 7.07,4.811 1.9,2.469 2.85,5.658 2.85,9.568 0,3.016 -0.547,5.553 -1.643,7.607 -1.094,2.057 -2.486,3.67 -4.172,4.844 -1.688,1.172 -3.402,1.949 -5.145,2.328 C 64.06,51.41 60.63,51.644 56.14,51.644 H 42.003 v 18.533 h -9.919 z m 9.92,-40.822 v 13.943 h 13.098 c 3.91,0 6.523,-0.258 7.842,-0.771 1.319,-0.513 2.352,-1.318 3.1,-2.412 0.75,-1.096 1.123,-2.369 1.123,-3.822 0,-1.787 -0.525,-3.262 -1.574,-4.424 -1.051,-1.162 -2.381,-1.887 -3.988,-2.178 -1.186,-0.223 -3.564,-0.336 -7.139,-0.336 z"
     id="path3736"
     inkscape:connector-curvature="0" /><path
     d="M 129.45,70.178 H 118.659 L 112.897,55.041 H 96.116 L 90.673,70.178 H 80.15 L 99.287,21.045 h 10.49 z M 109.711,46.762 104.414,32.506 99.166,46.762 Z"
     id="path3738"
     inkscape:connector-curvature="0" /></svg>